<?xml version="1.0" encoding="iso-8859-1"?>
<!-- Generator: Adobe Illustrator 19.0.0, SVG Export Plug-In . SVG Version: 6.00 Build 0)  -->
<svg version="1.1" id="Capa_1" xmlns="http://www.w3.org/2000/svg" xmlns:xlink="http://www.w3.org/1999/xlink" x="0px" y="0px"
	 viewBox="0 0 511.999 511.999" style="fill:#f70a35" xml:space="preserve">
<g>
	<g>
		<path d="M358.73,168.089c-14.935,0-29.547,2.126-43.635,6.312c0.558-5.386,0.846-10.851,0.846-16.382
			c0-25.309-5.809-49.492-17.263-71.875c-2.518-4.916-8.542-6.861-13.456-4.346c-4.915,2.517-6.861,8.54-4.346,13.456
			c9.998,19.535,15.067,40.652,15.067,62.764c0,76.08-61.895,137.974-137.974,137.974c-17.736,0-35.01-3.321-51.339-9.874
			c-3.715-1.487-7.962-0.62-10.793,2.21l-21.851,21.853v-37.865c0-2.988-1.337-5.82-3.644-7.72
			c-31.995-26.339-50.346-65.185-50.346-106.578c0-76.08,61.895-137.974,137.974-137.974c18.363,0,36.191,3.546,52.99,10.54
			c5.42,2.256,10.753,4.891,15.85,7.832c4.782,2.758,10.896,1.119,13.656-3.664c2.759-4.782,1.119-10.897-3.664-13.656
			c-5.838-3.367-11.947-6.387-18.156-8.972C199.4,4.111,178.986,0.047,157.971,0.047C70.866,0.047,0,70.913,0,158.018
			c0,45.797,19.615,88.869,53.99,118.924v57.376c0,4.044,2.437,7.69,6.172,9.237c1.237,0.512,2.536,0.761,3.824,0.761
			c2.602,0,5.159-1.016,7.072-2.928l34.361-34.361c16.848,5.949,34.493,8.961,52.552,8.961c16.744,0,32.883-2.628,48.038-7.477
			c-0.357,4.272-0.547,8.56-0.547,12.845c0,23.406,5.141,45.876,15.28,66.789c1.729,3.562,5.292,5.638,9.003,5.638
			c1.464,0,2.95-0.322,4.355-1.004c4.968-2.409,7.043-8.39,4.634-13.359c-8.81-18.17-13.277-37.705-13.277-58.063
			c0-7.151,0.583-14.312,1.718-21.357c41.219-20.173,72.416-57.772,83.928-103.142c15.179-5.818,31.174-8.773,47.626-8.773
			c73.487,0,133.273,59.786,133.273,133.272c0,40.823-18.345,78.843-50.329,104.314c-2.383,1.896-3.77,4.775-3.77,7.821v44.326
			l-27.387-27.387c-2.668-2.667-6.607-3.606-10.188-2.43c-13.399,4.398-27.395,6.629-41.599,6.629
			c-20.32,0-39.825-4.452-57.97-13.233c-4.968-2.404-10.949-0.326-13.355,4.645c-2.405,4.97-0.325,10.949,4.645,13.355
			c20.883,10.104,43.318,15.228,66.68,15.228c14.24,0,28.305-1.952,41.895-5.81l40.208,40.208c1.913,1.913,4.47,2.928,7.072,2.928
			c1.288,0,2.588-0.249,3.824-0.761c3.735-1.548,6.172-5.193,6.172-9.237v-63.74c34.445-29.224,54.098-71.537,54.098-116.857
			C512,236.845,443.243,168.089,358.73,168.089z"/>
	</g>
</g>
<g>
	<g>
		<path d="M265.918,416.998c-0.307-0.296-0.611-0.594-0.914-0.895c-3.92-3.887-10.252-3.858-14.139,0.063
			c-3.887,3.921-3.858,10.252,0.063,14.139c0.353,0.35,0.707,0.696,1.063,1.042c1.943,1.886,4.454,2.823,6.963,2.823
			c2.609,0,5.216-1.016,7.176-3.034C269.975,427.173,269.88,420.843,265.918,416.998z"/>
	</g>
</g>
<g>
	<g>
		<path d="M273.895,50.701c-4.341-4.633-10.644-3.949-14.23-0.609c-3.585,3.337-4.717,9.576-0.406,14.237
			c0.03,0.032,0.061,0.065,0.091,0.097c2.158,2.271,4.783,3.244,7.319,3.244c2.604,0,5.11-1.027,6.916-2.729
			C277.147,61.579,278.237,55.333,273.895,50.701z"/>
	</g>
</g>
<g>
	<g>
		<path d="M114.479,123.516c-1.86-1.86-4.43-2.93-7.069-2.93c-2.63,0-5.209,1.07-7.069,2.93c-1.859,1.859-2.929,4.438-2.929,7.068
			s1.07,5.209,2.929,7.069c1.86,1.86,4.439,2.929,7.069,2.929s5.209-1.069,7.069-2.929c1.87-1.86,2.929-4.439,2.929-7.069
			S116.348,125.374,114.479,123.516z"/>
	</g>
</g>
<g>
	<g>
		<path d="M215.6,123.516c-1.859-1.86-4.438-2.93-7.069-2.93c-2.64,0-5.219,1.07-7.078,2.93c-1.86,1.859-2.92,4.438-2.92,7.068
			s1.061,5.209,2.92,7.069c1.869,1.86,4.448,2.929,7.078,2.929s5.199-1.069,7.069-2.929c1.86-1.86,2.929-4.439,2.929-7.069
			S217.461,125.374,215.6,123.516z"/>
	</g>
</g>
<g>
	<g>
		<path d="M196.253,182.578c-5.338-1.429-10.815,1.745-12.24,7.079c-3.148,11.787-13.857,20.019-26.042,20.019
			s-22.893-8.232-26.042-20.019c-1.425-5.335-6.904-8.509-12.24-7.079c-5.335,1.426-8.504,6.905-7.079,12.24
			c5.483,20.522,24.135,34.854,45.361,34.854c21.225,0,39.878-14.332,45.361-34.854
			C204.757,189.482,201.588,184.003,196.253,182.578z"/>
	</g>
</g>
<g>
	<g>
		<path d="M316.92,287.544c-1.859-1.86-4.428-2.929-7.068-2.929c-2.63,0-5.209,1.069-7.069,2.929
			c-1.86,1.861-2.929,4.439-2.929,7.069c0,2.64,1.069,5.209,2.929,7.068c1.86,1.86,4.439,2.93,7.069,2.93
			c2.64,0,5.209-1.07,7.068-2.93c1.87-1.859,2.93-4.438,2.93-7.068S318.79,289.404,316.92,287.544z"/>
	</g>
</g>
<g>
	<g>
		<path d="M414.673,287.545c-1.86-1.86-4.43-2.929-7.069-2.929c-2.63,0-5.209,1.069-7.069,2.929
			c-1.859,1.86-2.929,4.439-2.929,7.069c0,2.64,1.07,5.209,2.929,7.068c1.86,1.86,4.439,2.93,7.069,2.93
			c2.639-0.001,5.209-1.071,7.069-2.93c1.859-1.859,2.929-4.438,2.929-7.068S416.533,289.405,414.673,287.545z"/>
	</g>
</g>
<g>
	<g>
		<path d="M402.902,378.161c-5.337-19.983-23.503-33.941-44.172-33.941s-38.834,13.957-44.173,33.941
			c-1.426,5.335,1.744,10.814,7.079,12.24c5.339,1.43,10.814-1.745,12.24-7.079c3.005-11.249,13.227-19.105,24.853-19.105
			c11.629,0,21.85,7.857,24.854,19.105c1.194,4.471,5.235,7.421,9.653,7.421c0.854,0,1.723-0.11,2.587-0.342
			C401.159,388.975,404.328,383.496,402.902,378.161z"/>
	</g>
</g>
<g>
</g>
<g>
</g>
<g>
</g>
<g>
</g>
<g>
</g>
<g>
</g>
<g>
</g>
<g>
</g>
<g>
</g>
<g>
</g>
<g>
</g>
<g>
</g>
<g>
</g>
<g>
</g>
<g>
</g>
</svg>
