<svg id="Capa_1" enable-background="new 0 0 512 512" height="512" viewBox="0 0 512 512" width="512" xmlns="http://www.w3.org/2000/svg"><g><g><path clip-rule="evenodd" d="m334.875 182.972c40.196 8.334 79.541 7.285 104.231 0l-3.09-15.223c-3.373-16.668-13.918-30.927-30.926-30.927h-36.227c-17.008 0-27.553 14.259-30.926 30.927z" fill="#365e7d" fill-rule="evenodd"/></g><g><path clip-rule="evenodd" d="m235.69 205.763 19.588 21.119 21.005-21.119v-18.653c0-7.314-5.981-13.295-13.266-13.295h-7.03-7.002c-7.313 0-13.295 5.981-13.295 13.295z" fill="#365e7d" fill-rule="evenodd"/></g><g><path clip-rule="evenodd" d="m177.125 182.972-3.09-15.223c-3.373-16.668-13.918-30.927-30.926-30.927h-36.199c-17.008 0-27.553 14.259-30.926 30.927l-3.09 15.223c33.704.623 73.418 1.389 104.231 0z" fill="#365e7d" fill-rule="evenodd"/></g><g><path clip-rule="evenodd" d="m15.01 439.375c0 69.877 102.615 89.72 133.088 28.886l31.975-63.81c19.333-33.989 16.951-32.486 56.75-32.486h19.162 19.162c39.827 0 37.418-1.502 56.779 32.486l31.947 63.81c30.473 60.834 133.117 40.991 133.117-28.886v-162.29c0-19.05-5.358-36.852-14.627-51.989-10.205-17.746-25.229-32.373-43.257-42.124-15.534-8.363-33.279-13.125-52.13-13.125s-36.596 4.762-52.101 13.125c-10.999 5.925-20.835 13.664-29.169 22.791h-29.424-20.296-20.296c-44.788 0-24.322-4.309-58.564-22.791-15.506-8.363-33.251-13.125-52.13-13.125-18.851 0-36.596 4.762-52.101 13.125-18.057 9.752-33.052 24.379-43.257 42.124-9.298 15.138-14.627 32.94-14.627 51.989v162.29z" fill="#f9f6f6" fill-rule="evenodd"/></g><g><path clip-rule="evenodd" d="m332.862 300.16c11.254 0 20.381-9.128 20.381-20.382s-9.128-20.382-20.381-20.382-20.381 9.128-20.381 20.382 9.128 20.382 20.381 20.382z" fill="#a7e9a6" fill-rule="evenodd"/></g><g><path clip-rule="evenodd" d="m366.595 333.894c0 11.254 9.128 20.382 20.381 20.382 11.254 0 20.381-9.128 20.381-20.382s-9.128-20.382-20.381-20.382-20.381 9.128-20.381 20.382z" fill="#ffe07d" fill-rule="evenodd"/></g><g><path clip-rule="evenodd" d="m420.709 279.779c0 11.254 9.128 20.382 20.381 20.382s20.381-9.128 20.381-20.382-9.128-20.382-20.381-20.382-20.381 9.128-20.381 20.382z" fill="#22a6fe" fill-rule="evenodd"/></g><g><path clip-rule="evenodd" d="m366.595 225.663c0 11.254 9.128 20.382 20.381 20.382 11.254 0 20.381-9.128 20.381-20.382s-9.128-20.382-20.381-20.382-20.381 9.128-20.381 20.382z" fill="#eb5468" fill-rule="evenodd"/></g><g><path clip-rule="evenodd" d="m124.995 354.276c41.16 0 74.495-33.365 74.495-74.497s-33.336-74.497-74.495-74.497c-41.131 0-74.467 33.365-74.467 74.497s33.336 74.497 74.467 74.497zm35.264-74.497c0 19.475-15.789 35.264-35.263 35.264-19.446 0-35.235-15.79-35.235-35.264 0-19.475 15.789-35.264 35.235-35.264 19.474-.001 35.263 15.789 35.263 35.264z" fill="#365e7d" fill-rule="evenodd"/></g><g><path clip-rule="evenodd" d="m124.995 315.043c19.474 0 35.263-15.79 35.263-35.264 0-19.475-15.789-35.264-35.263-35.264-19.446 0-35.235 15.79-35.235 35.264s15.789 35.264 35.235 35.264z" fill="#f9f6f6" fill-rule="evenodd"/></g><g><path clip-rule="evenodd" d="m399.251 499.897c41.556 15.478 97.74-8.816 97.74-60.522v-162.29c0-19.05-5.358-36.852-14.627-51.989-10.205-17.746-25.229-32.373-43.257-42.124-15.534-8.363-33.279-13.125-52.13-13.125-7.143 0-14.117.68-20.863 1.984 13.096 3.402 25.257 9.128 35.972 16.753 12.983 9.213 23.868 21.147 31.833 35.009 6.775 11.027 11.452 23.472 13.493 36.795 8.164 2.665 14.06 10.347 14.06 19.39 0 8.618-5.358 15.988-12.926 18.965v139.13c0 32.628-22.366 54.342-49.295 62.024z" fill="#dddaec" fill-rule="evenodd"/></g><g><path clip-rule="evenodd" d="m143.392 171.377c12.019 2.041 23.386 6.01 33.733 11.594l-3.09-15.223c-3.373-16.668-13.918-30.927-30.926-30.927h-36.199c-3.543 0-6.775.624-9.751 1.729h14.91c17.008 0 27.553 14.259 30.926 30.927z" fill="#2b4d66" fill-rule="evenodd"/></g><g><path clip-rule="evenodd" d="m438.369 182.575c.17.085.312.17.482.255-.17-.085-.312-.17-.482-.255zm-37.985-11.906c13.436 1.644 26.107 5.698 37.588 11.708.113.057.255.142.397.198-11.821-6.237-24.69-10.29-37.985-11.906zm0 0c13.578 1.644 26.391 5.783 37.985 11.906.255.142.482.283.737.397l-3.09-15.223c-3.373-16.668-13.918-30.927-30.926-30.927h-36.227c17.036 0 27.581 14.259 30.955 30.927z" fill="#2b4d66" fill-rule="evenodd"/></g><g><path clip-rule="evenodd" d="m124.995 354.276c41.16 0 74.495-33.365 74.495-74.497s-33.336-74.497-74.495-74.497c-9.468 0-18.51 1.786-26.844 4.989 13.862 7.824 24.945 19.957 31.493 34.556 17.263 2.268 30.615 17.037 30.615 34.953 0 19.475-15.789 35.264-35.263 35.264-.142 0-.283 0-.454 0-8.476 13.38-21.118 23.869-36.085 29.652 10.799 6.093 23.272 9.58 36.538 9.58z" fill="#2b4d66" fill-rule="evenodd"/></g><g><path clip-rule="evenodd" d="m124.995 315.043c19.474 0 35.263-15.79 35.263-35.264 0-17.916-13.351-32.685-30.615-34.953-1.531-.198-3.061-.312-4.649-.312-4.621 0-9.043.907-13.096 2.523 10.602 6.066 17.745 17.519 17.745 30.587 0 14.854-9.184 27.554-22.167 32.741 5.046 2.891 10.857 4.592 17.065 4.677h.454z" fill="#dddaec" fill-rule="evenodd"/></g><g><path clip-rule="evenodd" d="m62.944 501.003c31.068 9.468 68.684.17 85.154-32.741l31.975-63.81c17.773-31.211 17.178-32.486 47.878-32.486h-18.51-19.162c-39.827 0-37.418-1.502-56.779 32.486l-31.975 63.81c-8.505 16.98-22.622 27.667-38.581 32.741z" fill="#dddaec" fill-rule="evenodd"/></g><g><path d="m386.976 197.781c-15.374 0-27.882 12.508-27.882 27.882s12.507 27.882 27.882 27.882 27.882-12.508 27.882-27.882-12.507-27.882-27.882-27.882zm0 40.764c-7.103 0-12.881-5.778-12.881-12.882s5.778-12.882 12.881-12.882 12.881 5.778 12.881 12.882-5.778 12.882-12.881 12.882z"/><path d="m332.862 251.897c-15.374 0-27.882 12.508-27.882 27.882s12.507 27.882 27.882 27.882 27.882-12.508 27.882-27.882c0-15.375-12.507-27.882-27.882-27.882zm0 40.763c-7.103 0-12.881-5.778-12.881-12.882 0-7.103 5.778-12.882 12.881-12.882s12.881 5.778 12.881 12.882c.001 7.104-5.778 12.882-12.881 12.882z"/><path d="m386.976 306.012c-15.374 0-27.882 12.508-27.882 27.882s12.507 27.882 27.882 27.882 27.882-12.508 27.882-27.882-12.507-27.882-27.882-27.882zm0 40.764c-7.103 0-12.881-5.778-12.881-12.882 0-7.103 5.778-12.882 12.881-12.882s12.881 5.778 12.881 12.882c0 7.103-5.778 12.882-12.881 12.882z"/><path d="m213.988 330.379c0 4.142 3.358 7.5 7.5 7.5h15.222c4.142 0 7.5-3.358 7.5-7.5s-3.358-7.5-7.5-7.5h-15.222c-4.142 0-7.5 3.358-7.5 7.5z"/><path d="m267.789 330.379c0 4.142 3.358 7.5 7.5 7.5h15.195c4.143 0 7.5-3.358 7.5-7.5s-3.358-7.5-7.5-7.5h-15.194c-4.143 0-7.501 3.358-7.501 7.5z"/><path d="m276.253 238.318h-40.536c-4.142 0-7.5 3.358-7.5 7.5s3.358 7.5 7.5 7.5h40.536c4.143 0 7.5-3.358 7.5-7.5.001-4.142-3.357-7.5-7.5-7.5z"/><path d="m206.991 279.779c0-45.214-36.783-81.998-81.995-81.998-45.197 0-81.967 36.784-81.967 81.998s36.77 81.997 81.967 81.997c45.212 0 81.995-36.784 81.995-81.997zm-148.962 0c0-36.942 30.041-66.997 66.967-66.997 36.941 0 66.995 30.055 66.995 66.997s-30.054 66.997-66.995 66.997c-36.926 0-66.967-30.055-66.967-66.997z"/><path d="m167.759 279.779c0-23.581-19.184-42.765-42.763-42.765-23.565 0-42.736 19.184-42.736 42.765 0 23.58 19.171 42.764 42.736 42.764 23.579 0 42.763-19.184 42.763-42.764zm-70.499 0c0-15.31 12.442-27.764 27.735-27.764 15.309 0 27.763 12.455 27.763 27.764s-12.454 27.764-27.763 27.764c-15.293 0-27.735-12.455-27.735-27.764z"/><path d="m496.99 350.631c-4.143 0-7.5 3.358-7.5 7.5v81.244c0 32.863-25.382 50.525-47.118 55.665-25.231 5.963-57.216-1.039-71.792-30.136l-34.227-67.842c-8.854-15.592-13.297-23.418-21.291-28.037-7.977-4.611-17.029-4.598-35.084-4.566h-47.983c-18.053-.029-27.11-.045-35.091 4.575-7.993 4.628-12.439 12.469-21.296 28.089l-34.216 67.779c-14.576 29.098-46.55 36.105-71.774 30.138-21.731-5.138-47.108-22.8-47.108-55.665v-81.244c0-4.142-3.358-7.5-7.5-7.5s-7.5 3.358-7.5 7.5v81.244c0 34.258 23.024 61.838 58.656 70.263 30.971 7.324 70.391-1.592 88.637-38.017l33.853-67.099c7.283-12.844 11.295-19.919 15.765-22.506 4.482-2.595 12.675-2.579 27.549-2.557h48.034c14.867-.026 23.07-.039 27.553 2.552 4.467 2.582 8.476 9.641 15.752 22.457l33.858 67.151c14.413 28.773 42.034 40.38 68.275 40.38 6.982 0 13.87-.823 20.381-2.362 35.638-8.427 58.666-36.006 58.666-70.262v-81.244c.001-4.142-3.356-7.5-7.499-7.5z"/><path d="m488.814 221.269c-10.459-18.16-25.433-32.883-43.023-43.069l-2.423-11.939c-4.612-22.785-19.279-36.939-38.277-36.939h-36.228c-18.999 0-33.666 14.155-38.278 36.948l-2.391 11.887c-9.401 5.433-18.081 12.178-25.734 20.106h-18.677v-11.153c0-11.308-9.064-20.518-20.296-20.771v-33.174c0-10.057 8.195-18.239 18.267-18.239h58.508c18.329 0 33.239-14.924 33.239-33.268 0-18.329-14.911-33.24-33.239-33.24h-58.508c-10.073 0-18.267-8.195-18.267-18.268v-22.65c0-4.142-3.358-7.5-7.5-7.5s-7.5 3.358-7.5 7.5v22.65c0 18.344 14.924 33.269 33.267 33.269h58.508c10.057 0 18.239 8.182 18.239 18.239 0 10.073-8.182 18.268-18.239 18.268h-58.508c-18.343 0-33.267 14.911-33.267 33.24v33.176c-11.235.268-20.296 9.471-20.296 20.77v11.153h-18.676c-7.646-7.92-16.318-14.661-25.709-20.091l-2.417-11.91c-4.611-22.785-19.278-36.939-38.278-36.939h-36.201c-18.999 0-33.666 14.155-38.276 36.935l-2.423 11.937c-17.589 10.186-32.562 24.909-43.023 43.072-10.257 16.735-15.678 36.034-15.678 55.816v46.433c0 4.142 3.358 7.5 7.5 7.5s7.5-3.358 7.5-7.5v-46.433c0-17.046 4.674-33.666 13.517-48.064.038-.062.076-.125.112-.188 18.252-31.758 52.3-51.487 88.856-51.487 28.743 0 56.344 12.199 75.727 33.468 1.421 1.56 3.434 2.448 5.544 2.448h99.441c2.11 0 4.122-.889 5.544-2.448 19.381-21.27 46.983-33.468 75.726-33.468 36.573 0 70.632 19.729 88.884 51.487.035.06.07.12.106.179 8.847 14.448 13.523 31.071 13.523 48.073v46.433c0 4.142 3.358 7.5 7.5 7.5 4.143 0 7.5-3.358 7.5-7.5v-46.433c0-19.732-5.42-39.031-15.676-55.816zm-363.819-58.923c-14.501 0-28.656 2.712-41.837 7.76l.177-.87c2.438-12.045 9.91-24.915 23.575-24.915h36.199c13.664 0 21.138 12.87 23.576 24.919l.175.863c-13.25-5.065-27.43-7.757-41.865-7.757zm143.787 35.917h-25.592v-11.153c0-3.195 2.599-5.795 5.795-5.795h14.032c3.125 0 5.766 2.653 5.766 5.795v11.153zm118.194-35.917c-14.434 0-28.613 2.692-41.863 7.756l.174-.866c2.438-12.045 9.91-24.915 23.575-24.915h36.228c13.663 0 21.137 12.87 23.576 24.919l.177.872c-13.189-5.052-27.354-7.766-41.867-7.766z"/><path d="m441.09 307.661c15.374 0 27.882-12.508 27.882-27.882s-12.507-27.882-27.882-27.882-27.882 12.508-27.882 27.882 12.508 27.882 27.882 27.882zm0-40.764c7.103 0 12.881 5.778 12.881 12.882 0 7.103-5.778 12.882-12.881 12.882s-12.881-5.778-12.881-12.882c0-7.103 5.778-12.882 12.881-12.882z"/></g></g></svg>